<svg xmlns="http://www.w3.org/2000/svg" width="1400" height="840" viewBox="0 0 1400 840" fill="none">
  <rect width="1400" height="840" fill="#0B1020"/>
  <rect x="48" y="48" width="1304" height="744" rx="28" fill="#11182B" stroke="#26314D"/>
  <text x="88" y="120" fill="#F8FAFC" font-size="34" font-family="Arial, sans-serif" font-weight="700">Step 3: Open The Extracted Folder And Launch</text>
  <text x="88" y="165" fill="#A5B4D4" font-size="22" font-family="Arial, sans-serif">Open the extracted JobApplicationAgent folder and make sure these items are visible before you launch.</text>
  <rect x="88" y="220" width="760" height="520" rx="24" fill="#16213A" stroke="#31456E"/>
  <text x="124" y="268" fill="#E2E8F0" font-size="26" font-family="Arial, sans-serif" font-weight="700">JobApplicationAgent</text>
  <rect x="124" y="310" width="688" height="94" rx="16" fill="#0F172A" stroke="#475569"/>
  <text x="160" y="367" fill="#FDE68A" font-size="24" font-family="Arial, sans-serif" font-weight="700">INSTALL JAA.bat</text>
  <rect x="124" y="432" width="688" height="94" rx="16" fill="#0F172A" stroke="#475569"/>
  <text x="160" y="489" fill="#93C5FD" font-size="24" font-family="Arial, sans-serif">app</text>
  <rect x="124" y="554" width="688" height="94" rx="16" fill="#0F172A" stroke="#475569"/>
  <text x="160" y="611" fill="#93C5FD" font-size="24" font-family="Arial, sans-serif">python</text>
  <rect x="910" y="220" width="402" height="250" rx="24" fill="#16213A" stroke="#31456E"/>
  <text x="944" y="268" fill="#E2E8F0" font-size="26" font-family="Arial, sans-serif" font-weight="700">Launch</text>
  <rect x="944" y="314" width="334" height="86" rx="16" fill="#2563EB"/>
  <text x="1012" y="367" fill="#FFFFFF" font-size="28" font-family="Arial, sans-serif" font-weight="700">INSTALL JAA.bat</text>
  <rect x="910" y="500" width="402" height="240" rx="24" fill="#3F1D1D" stroke="#7F1D1D"/>
  <text x="944" y="548" fill="#FDE68A" font-size="24" font-family="Arial, sans-serif" font-weight="700">If SmartScreen appears</text>
  <text x="944" y="604" fill="#F8FAFC" font-size="22" font-family="Arial, sans-serif">1. Click More info</text>
  <text x="944" y="646" fill="#F8FAFC" font-size="22" font-family="Arial, sans-serif">2. Click Run anyway</text>
  <text x="944" y="700" fill="#A5B4D4" font-size="20" font-family="Arial, sans-serif">Then wait a few seconds for the browser to open.</text>
</svg>
